<?xml version="1.0" encoding="utf-8"?>
<svg version="1.1" xmlns:xlink="http://www.w3.org/1999/xlink" width="34px" height="32px" xmlns="http://www.w3.org/2000/svg">
  <g transform="matrix(1 0 0 1 -425 -272 )">
    <path d="M 33.3802083333333 0.53846153846154  C 33.7934027777778 0.897435897435894  34 1.33333333333333  34 1.84615384615385  L 34 23.3846153846154  C 34 24.025641025641  33.7491319444444 24.5961538461538  33.2473958333333 25.0961538461538  C 32.7456597222222 25.5961538461538  32.1111111111111 25.9839743589744  31.34375 26.2596153846154  C 30.5763888888889 26.5352564102564  29.8127170138889 26.7403846153846  29.052734375 26.875  C 28.2927517361111 27.0096153846154  27.5807291666667 27.0769230769231  26.9166666666667 27.0769230769231  C 26.2526041666667 27.0769230769231  25.5405815972222 27.0096153846154  24.7805989583333 26.875  C 24.0206163194444 26.7403846153846  23.2569444444444 26.5352564102564  22.4895833333333 26.2596153846154  C 21.7222222222222 25.9839743589744  21.0876736111111 25.5961538461538  20.5859375 25.0961538461538  C 20.0842013888889 24.5961538461538  19.8333333333333 24.025641025641  19.8333333333333 23.3846153846154  C 19.8333333333333 22.7435897435897  20.0842013888889 22.1730769230769  20.5859375 21.6730769230769  C 21.0876736111111 21.1730769230769  21.7222222222222 20.7852564102564  22.4895833333333 20.5096153846154  C 23.2569444444444 20.2339743589744  24.0206163194444 20.0288461538462  24.7805989583333 19.8942307692308  C 25.5405815972222 19.7596153846154  26.2526041666667 19.6923076923077  26.9166666666667 19.6923076923077  C 28.4661458333333 19.6923076923077  29.8828125 19.9423076923077  31 20.4423076923077  L 31 10.1153846153846  L 14.1666666666667 14.6730769230769  L 14.1666666666667 28.3076923076923  C 14.1666666666667 28.9487179487179  13.9157986111111 29.5192307692308  13.4140625 30.0192307692308  C 12.9123263888889 30.5192307692308  12.2777777777778 30.9070512820513  11.5104166666667 31.1826923076923  C 10.7430555555556 31.4583333333333  9.97938368055556 31.6634615384615  9.21940104166667 31.7980769230769  C 8.45941840277778 31.9326923076923  7.74739583333333 32  7.08333333333333 32  C 6.41927083333333 32  5.70724826388889 31.9326923076923  4.947265625 31.7980769230769  C 4.18728298611111 31.6634615384615  3.42361111111111 31.4583333333333  2.65625 31.1826923076923  C 1.88888888888889 30.9070512820513  1.25434027777778 30.5192307692308  0.752604166666667 30.0192307692308  C 0.250868055555556 29.5192307692308  0 28.9487179487179  0 28.3076923076923  C 0 27.6666666666667  0.250868055555556 27.0961538461538  0.752604166666667 26.5961538461538  C 1.25434027777778 26.0961538461538  1.88888888888889 25.7083333333333  2.65625 25.4326923076923  C 3.42361111111111 25.1570512820513  4.18728298611111 24.9519230769231  4.947265625 24.8173076923077  C 5.70724826388889 24.6826923076923  6.41927083333333 24.6153846153846  7.08333333333333 24.6153846153846  C 8.6328125 24.6153846153846  10.0494791666667 24.8653846153846  12 25.3653846153846  L 12 6.76923076923077  C 11.3333333333333 6.37179487179487  11.4735243055556 6.00961538461538  11.75390625 5.68269230769231  C 12.0342881944444 5.35576923076923  12.3958333333333 5.12820512820512  12.8385416666667 5  L 31.2552083333333 0.0769230769230767  C 31.4322916666667 0.0256410256410256  31.6388888888889 0  31.875 0  C 32.4652777777778 0  32.9670138888889 0.179487179487179  33.3802083333333 0.53846153846154  Z " fill-rule="nonzero" fill="#000000" stroke="none" transform="matrix(1 0 0 1 425 272 )" />
  </g>
</svg>