<?xml version="1.0" encoding="utf-8"?>
<svg version="1.1" xmlns:xlink="http://www.w3.org/1999/xlink" width="33px" height="25px" xmlns="http://www.w3.org/2000/svg">
  <g transform="matrix(1 0 0 1 -782 -331 )">
    <path d="M 14.8539663461538 2.14486638537272  C 15.1051682692308 2.36755743084857  15.2307692307692 2.63127051101734  15.2307692307692 2.93600562587904  L 15.2307692307692 22.063994374121  C 15.2307692307692 22.3687294889827  15.1051682692308 22.6324425691514  14.8539663461538 22.8551336146273  C 14.6027644230769 23.0778246601031  14.3052884615385 23.1891701828411  13.9615384615385 23.1891701828411  C 13.6177884615385 23.1891701828411  13.3203125 23.0778246601031  13.0691105769231 22.8551336146273  L 6.46514423076923 17.0007032348804  L 1.26923076923077 17.0007032348804  C 0.925480769230769 17.0007032348804  0.628004807692308 16.8893577121425  0.376802884615385 16.6666666666667  C 0.125600961538462 16.4439756211908  0 16.180262541022  0 15.8755274261603  L 0 9.12447257383966  C 0 8.81973745897796  0.125600961538462 8.55602437880919  0.376802884615385 8.33333333333333  C 0.628004807692308 8.11064228785748  0.925480769230769 7.99929676511955  1.26923076923077 7.99929676511955  L 6.46514423076923 7.99929676511955  L 13.0691105769231 2.14486638537272  C 13.3203125 1.92217533989686  13.6177884615385 1.81082981715893  13.9615384615385 1.81082981715893  C 14.3052884615385 1.81082981715893  14.6027644230769 1.92217533989686  14.8539663461538 2.14486638537272  Z M 22.0033052884615 10.0035161744023  C 22.5652043269231 10.7770745428973  22.8461538461538 11.6092358180966  22.8461538461538 12.5  C 22.8461538461538 13.3907641819034  22.5652043269231 14.2199953117675  22.0033052884615 14.9876933895921  C 21.44140625 15.7553914674168  20.6977163461538 16.3033286451008  19.7722355769231 16.6315049226442  C 19.6400240384615 16.6901078293483  19.4747596153846 16.7194092827004  19.2764423076923 16.7194092827004  C 18.9326923076923 16.7194092827004  18.6352163461538 16.6109939052977  18.3840144230769 16.3941631504923  C 18.1328125 16.1773323956868  18.0072115384615 15.9106891701828  18.0072115384615 15.5942334739803  C 18.0072115384615 15.3481012658228  18.0865384615385 15.140060947023  18.2451923076923 14.9701125175809  C 18.4038461538462 14.8001640881388  18.5955528846154 14.6536568213783  18.8203125 14.5305907172996  C 19.0450721153846 14.4075246132208  19.2698317307692 14.2727379278012  19.4945913461538 14.1262306610408  C 19.7193509615385 13.9797233942804  19.9110576923077 13.7687529301453  20.0697115384615 13.4933192686357  C 20.2283653846154 13.2178856071261  20.3076923076923 12.8867791842475  20.3076923076923 12.5  C 20.3076923076923 12.1132208157525  20.2283653846154 11.7821143928739  20.0697115384615 11.5066807313643  C 19.9110576923077 11.2312470698547  19.7193509615385 11.0202766057196  19.4945913461538 10.8737693389592  C 19.2698317307692 10.7272620721988  19.0450721153846 10.5924753867792  18.8203125 10.4694092827004  C 18.5955528846154 10.3463431786217  18.4038461538462 10.1998359118612  18.2451923076923 10.0298874824191  C 18.0865384615385 9.85993905297703  18.0072115384615 9.65189873417721  18.0072115384615 9.40576652601969  C 18.0072115384615 9.08931082981716  18.1328125 8.82266760431317  18.3840144230769 8.60583684950774  C 18.6352163461538 8.3890060947023  18.9326923076923 8.28059071729958  19.2764423076923 8.28059071729958  C 19.4747596153846 8.28059071729958  19.6400240384615 8.30989217065166  19.7722355769231 8.36849507735584  C 20.6977163461538 8.68495077355837  21.44140625 9.22995780590717  22.0033052884615 10.0035161744023  Z M 26.2373798076923 7.53340365682138  C 27.3611778846154 9.05121894045945  27.9230769230769 10.7067510548523  27.9230769230769 12.5  C 27.9230769230769 14.2932489451477  27.3611778846154 15.9487810595406  26.2373798076923 17.4665963431786  C 25.1135817307692 18.9844116268167  23.6262019230769 20.0890764181903  21.7752403846154 20.7805907172996  C 21.6033653846154 20.8391936240037  21.4381009615385 20.8684950773558  21.2794471153846 20.8684950773558  C 20.9224759615385 20.8684950773558  20.6183894230769 20.7571495546179  20.3671875 20.5344585091421  C 20.1159855769231 20.3117674636662  19.9903846153846 20.0480543834974  19.9903846153846 19.7433192686357  C 19.9903846153846 19.2862165963432  20.2481971153846 18.9404594467886  20.7638221153846 18.7060478199719  C 21.5042067307692 18.3661509610877  22.0066105769231 18.1082981715893  22.2710336538462 17.9324894514768  C 23.2493990384615 17.2995780590717  24.0129206730769 16.5055086732302  24.5615985576923 15.5502812939522  C 25.1102764423077 14.5950539146742  25.3846153846154 13.5782934833568  25.3846153846154 12.5  C 25.3846153846154 11.4217065166432  25.1102764423077 10.4049460853258  24.5615985576923 9.44971870604782  C 24.0129206730769 8.49449132676981  23.2493990384615 7.70042194092827  22.2710336538462 7.06751054852321  C 22.0066105769231 6.89170182841069  21.5042067307692 6.63384903891233  20.7638221153846 6.29395218002813  C 20.2481971153846 6.05954055321144  19.9903846153846 5.71378340365682  19.9903846153846 5.25668073136427  C 19.9903846153846 4.95194561650258  20.1159855769231 4.6882325363338  20.3671875 4.46554149085795  C 20.6183894230769 4.24285044538209  20.9158653846154 4.13150492264416  21.2596153846154 4.13150492264416  C 21.4314903846154 4.13150492264416  21.6033653846154 4.16080637599625  21.7752403846154 4.21940928270042  C 23.6262019230769 4.91092358180966  25.1135817307692 6.01558837318331  26.2373798076923 7.53340365682138  Z M 30.4813701923077 5.07208157524613  C 32.1604567307692 7.32829348335677  33 9.80426629160806  33 12.5  C 33 15.1957337083919  32.1604567307692 17.6717065166432  30.4813701923077 19.9279184247539  C 28.8022836538462 22.1841303328645  26.5679086538462 23.8455227379278  23.7782451923077 24.9120956399437  C 23.6063701923077 24.9706985466479  23.4344951923077 25  23.2626201923077 25  C 22.9188701923077 25  22.6213942307692 24.8886544772621  22.3701923076923 24.6659634317862  C 22.1189903846154 24.4432723863104  21.9933894230769 24.1795593061416  21.9933894230769 23.8748241912799  C 21.9933894230769 23.4528832630098  22.2512019230769 23.1071261134552  22.7668269230769 22.837552742616  C 22.859375 22.7906704172527  23.0081129807692 22.7291373652133  23.2130408653846 22.6529535864979  C 23.41796875 22.5767698077825  23.5667067307692 22.5152367557431  23.6592548076923 22.4683544303797  C 24.2674278846154 22.1753398968589  24.8094951923077 21.8764650726676  25.2854567307692 21.5717299578059  C 26.9116586538462 20.50515705579  28.1808894230769 19.1748710736052  29.0931490384615 17.5808720112518  C 30.0054086538462 15.9868729488983  30.4615384615385 14.2932489451477  30.4615384615385 12.5  C 30.4615384615385 10.7067510548523  30.0054086538462 9.01312705110174  29.0931490384615 7.41912798874824  C 28.1808894230769 5.82512892639475  26.9116586538462 4.49484294421003  25.2854567307692 3.42827004219409  C 24.8094951923077 3.12353492733239  24.2674278846154 2.82466010314111  23.6592548076923 2.53164556962025  C 23.5667067307692 2.48476324425691  23.41796875 2.42323019221753  23.2130408653846 2.34704641350211  C 23.0081129807692 2.27086263478668  22.859375 2.2093295827473  22.7668269230769 2.16244725738397  C 22.2512019230769 1.89287388654477  21.9933894230769 1.54711673699015  21.9933894230769 1.12517580872011  C 21.9933894230769 0.820440693858412  22.1189903846154 0.556727613689637  22.3701923076923 0.334036568213783  C 22.6213942307692 0.111345522737927  22.9188701923077 0  23.2626201923077 0  C 23.4344951923077 0  23.6063701923077 0.0293014533520847  23.7782451923077 0.0879043600562596  C 26.5679086538462 1.1544772620722  28.8022836538462 2.81586966713549  30.4813701923077 5.07208157524613  Z " fill-rule="nonzero" fill="#000000" stroke="none" transform="matrix(1 0 0 1 782 331 )" />
  </g>
</svg>