<?xml version="1.0" encoding="utf-8"?>
<svg version="1.1" xmlns:xlink="http://www.w3.org/1999/xlink" width="31px" height="25px" xmlns="http://www.w3.org/2000/svg">
  <g transform="matrix(1 0 0 1 -1073 -444 )">
    <path d="M 30.44 3.45117845117845  C 30.8133333333333 3.84399551066218  31 4.32098765432099  31 4.88215488215488  C 31 5.44332210998877  30.8133333333333 5.92031425364759  30.44 6.31313131313131  L 15.96 21.5488215488215  L 13.24 24.4107744107744  C 12.8666666666667 24.8035914702581  12.4133333333333 25  11.88 25  C 11.3466666666667 25  10.8933333333333 24.8035914702581  10.52 24.4107744107744  L 7.8 21.5488215488215  L 0.56 13.9309764309764  C 0.186666666666667 13.5381593714927  0 13.0611672278339  0 12.5  C 0 11.9388327721661  0.186666666666667 11.4618406285073  0.56 11.0690235690236  L 3.28 8.20707070707071  C 3.65333333333333 7.81425364758698  4.10666666666667 7.61784511784512  4.64 7.61784511784512  C 5.17333333333333 7.61784511784512  5.62666666666667 7.81425364758698  6 8.20707070707071  L 11.88 14.4149831649832  L 25 0.589225589225589  C 25.3733333333333 0.196408529741862  25.8266666666667 0  26.36 0  C 26.8933333333333 0  27.3466666666667 0.196408529741862  27.72 0.589225589225589  L 30.44 3.45117845117845  Z " fill-rule="nonzero" fill="#000000" stroke="none" transform="matrix(1 0 0 1 1073 444 )" />
  </g>
</svg>