<?xml version="1.0" encoding="utf-8"?>
<svg version="1.1" xmlns:xlink="http://www.w3.org/1999/xlink" width="25px" height="30px" xmlns="http://www.w3.org/2000/svg">
  <g transform="matrix(1 0 0 1 -705 -420 )">
    <path d="M 13.8615733736762 22.6004464285714  L 13.8804841149773 17.6283482142857  L 16.679273827534 20.1060267857143  L 13.8615733736762 22.6004464285714  Z M 13.8804841149773 12.3716517857143  L 13.8615733736762 7.39955357142857  L 16.679273827534 9.89397321428571  L 13.8804841149773 12.3716517857143  Z M 11.4031770045386 17.6618303571429  L 11.4031770045386 27.890625  L 20.17776096823 20.1227678571429  L 14.3910741301059 15  L 20.17776096823 9.87723214285714  L 11.4031770045386 2.109375  L 11.4031770045386 12.3381696428571  L 6.58093797276853 8.06919642857143  L 4.82223903177005 9.62611607142857  L 10.8736762481089 15  L 4.82223903177005 20.3738839285714  L 6.58093797276853 21.9308035714286  L 11.4031770045386 17.6618303571429  Z M 24.3948562783661 8.88113839285714  C 24.798285426122 10.6277901785714  25 12.6674107142857  25 15  C 25 17.3325892857143  24.798285426122 19.3722098214286  24.3948562783661 21.1188616071429  C 23.9914271306102 22.8655133928571  23.4398638426626 24.2996651785714  22.7401664145235 25.4213169642857  C 22.0404689863843 26.54296875  21.1548159354513 27.4497767857143  20.0832072617247 28.1417410714286  C 19.011598587998 28.8337053571429  17.8674987392839 29.31640625  16.6509077155824 29.58984375  C 15.434316691881 29.86328125  14.0506807866868 30  12.5 30  C 10.9493192133132 30  9.56568330811901 29.86328125  8.34909228441755 29.58984375  C 7.13250126071609 29.31640625  5.98840141200202 28.8337053571429  4.91679273827534 28.1417410714286  C 3.84518406454866 27.4497767857143  2.95953101361573 26.54296875  2.25983358547655 25.4213169642857  C 1.56013615733737 24.2996651785714  1.00857286938981 22.8655133928571  0.605143721633888 21.1188616071429  C 0.201714573877963 19.3722098214286  0 17.3325892857143  0 15  C 0 12.6674107142857  0.201714573877963 10.6277901785714  0.605143721633888 8.88113839285714  C 1.00857286938981 7.13448660714285  1.56013615733737 5.70033482142857  2.25983358547655 4.57868303571429  C 2.95953101361573 3.45703125  3.84518406454866 2.55022321428571  4.91679273827534 1.85825892857143  C 5.98840141200202 1.16629464285714  7.13250126071609 0.683593749999998  8.34909228441755 0.41015625  C 9.56568330811901 0.136718750000002  10.9493192133132 0  12.5 0  C 14.0506807866868 0  15.434316691881 0.136718750000002  16.6509077155824 0.41015625  C 17.8674987392839 0.683593749999998  19.011598587998 1.16629464285714  20.0832072617247 1.85825892857143  C 21.1548159354513 2.55022321428571  22.0404689863843 3.45703125  22.7401664145235 4.57868303571429  C 23.4398638426626 5.70033482142857  23.9914271306102 7.13448660714285  24.3948562783661 8.88113839285714  Z " fill-rule="nonzero" fill="#000000" stroke="none" transform="matrix(1 0 0 1 705 420 )" />
  </g>
</svg>