<?xml version="1.0" encoding="utf-8"?>
<svg version="1.1" xmlns:xlink="http://www.w3.org/1999/xlink" width="27px" height="30px" xmlns="http://www.w3.org/2000/svg">
  <g transform="matrix(1 0 0 1 -703 -649 )">
    <path d="M 14.9704992435703 22.6004464285714  L 14.9909228441755 17.6283482142857  L 18.0136157337368 20.1060267857143  L 14.9704992435703 22.6004464285714  Z M 14.9909228441755 12.3716517857143  L 14.9704992435703 7.39955357142857  L 18.0136157337368 9.89397321428571  L 14.9909228441755 12.3716517857143  Z M 12.3154311649017 17.6618303571429  L 12.3154311649017 27.890625  L 21.7919818456884 20.1227678571429  L 15.5423600605144 15  L 21.7919818456884 9.87723214285714  L 12.3154311649017 2.109375  L 12.3154311649017 12.3381696428571  L 7.10741301059002 8.06919642857143  L 5.20801815431165 9.62611607142857  L 11.7435703479576 15  L 5.20801815431165 20.3738839285714  L 7.10741301059002 21.9308035714286  L 12.3154311649017 17.6618303571429  Z M 26.3464447806354 8.88113839285714  C 26.7821482602118 10.6277901785714  27 12.6674107142857  27 15  C 27 17.3325892857143  26.7821482602118 19.3722098214286  26.3464447806354 21.1188616071429  C 25.910741301059 22.8655133928571  25.3150529500756 24.2996651785714  24.5593797276853 25.4213169642857  C 23.803706505295 26.54296875  22.8472012102874 27.4497767857143  21.6898638426626 28.1417410714286  C 20.5325264750378 28.8337053571429  19.2968986384266 29.31640625  17.982980332829 29.58984375  C 16.6690620272315 29.86328125  15.1747352496218 30  13.5 30  C 11.8252647503782 30  10.3309379727685 29.86328125  9.01701966717095 29.58984375  C 7.70310136157337 29.31640625  6.46747352496218 28.8337053571429  5.31013615733737 28.1417410714286  C 4.15279878971256 27.4497767857143  3.19629349470499 26.54296875  2.44062027231467 25.4213169642857  C 1.68494704992436 24.2996651785714  1.089258698941 22.8655133928571  0.653555219364599 21.1188616071429  C 0.2178517397882 19.3722098214286  0 17.3325892857143  0 15  C 0 12.6674107142857  0.2178517397882 10.6277901785714  0.653555219364599 8.88113839285714  C 1.089258698941 7.13448660714285  1.68494704992436 5.70033482142857  2.44062027231467 4.57868303571429  C 3.19629349470499 3.45703125  4.15279878971256 2.55022321428571  5.31013615733737 1.85825892857143  C 6.46747352496218 1.16629464285714  7.70310136157337 0.683593749999998  9.01701966717095 0.41015625  C 10.3309379727685 0.136718750000002  11.8252647503782 0  13.5 0  C 15.1747352496218 0  16.6690620272315 0.136718750000002  17.982980332829 0.41015625  C 19.2968986384266 0.683593749999998  20.5325264750378 1.16629464285714  21.6898638426626 1.85825892857143  C 22.8472012102874 2.55022321428571  23.803706505295 3.45703125  24.5593797276853 4.57868303571429  C 25.3150529500756 5.70033482142857  25.910741301059 7.13448660714285  26.3464447806354 8.88113839285714  Z " fill-rule="nonzero" fill="#000000" stroke="none" transform="matrix(1 0 0 1 703 649 )" />
  </g>
</svg>