<?xml version="1.0" encoding="utf-8"?>
<svg version="1.1" xmlns:xlink="http://www.w3.org/1999/xlink" width="26px" height="18px" xmlns="http://www.w3.org/2000/svg">
  <g transform="matrix(1 0 0 1 -988 -392 )">
    <path d="M 25.5303225806452 2.48484848484849  C 25.8434408602151 2.76767676767677  26 3.11111111111111  26 3.51515151515152  C 26 3.91919191919192  25.8434408602151 4.26262626262626  25.5303225806452 4.54545454545455  L 13.3858064516129 15.5151515151515  L 11.1045161290323 17.5757575757576  C 10.7913978494624 17.8585858585859  10.4111827956989 18  9.96387096774194 18  C 9.51655913978495 18  9.13634408602151 17.8585858585859  8.82322580645161 17.5757575757576  L 6.54193548387097 15.5151515151515  L 0.469677419354839 10.030303030303  C 0.156559139784946 9.74747474747475  0 9.4040404040404  0 9  C 0 8.5959595959596  0.156559139784946 8.25252525252525  0.469677419354839 7.96969696969697  L 2.75096774193548 5.90909090909091  C 3.06408602150538 5.62626262626263  3.44430107526882 5.48484848484848  3.89161290322581 5.48484848484848  C 4.3389247311828 5.48484848484848  4.71913978494624 5.62626262626263  5.03225806451613 5.90909090909091  L 9.96387096774194 10.3787878787879  L 20.9677419354839 0.424242424242424  C 21.2808602150538 0.141414141414141  21.6610752688172 0  22.1083870967742 0  C 22.5556989247312 0  22.9359139784946 0.141414141414141  23.2490322580645 0.424242424242424  L 25.5303225806452 2.48484848484849  Z " fill-rule="nonzero" fill="#000000" stroke="none" transform="matrix(1 0 0 1 988 392 )" />
  </g>
</svg>