<?xml version="1.0" encoding="utf-8"?>
<svg version="1.1" xmlns:xlink="http://www.w3.org/1999/xlink" width="32px" height="34px" xmlns="http://www.w3.org/2000/svg">
  <g transform="matrix(1 0 0 1 -2060 -1423 )">
    <path d="M 7.96875 2.27994791666667  C 10.4201388888889 0.759982638888886  13.0972222222222 0  16 0  C 18.9027777777778 0  21.5798611111111 0.759982638888886  24.03125 2.27994791666667  C 26.4826388888889 3.79991319444444  28.4236111111111 5.86219618055556  29.8541666666667 8.466796875  C 31.2847222222222 11.0713975694444  32 13.9157986111111  32 17  C 32 20.0842013888889  31.2847222222222 22.9286024305556  29.8541666666667 25.533203125  C 28.4236111111111 28.1378038194444  26.4826388888889 30.2000868055556  24.03125 31.7200520833333  C 21.5798611111111 33.2400173611111  18.9027777777778 34  16 34  C 13.0972222222222 34  10.4201388888889 33.2400173611111  7.96875 31.7200520833333  C 5.51736111111111 30.2000868055556  3.57638888888889 28.1378038194444  2.14583333333333 25.533203125  C 0.715277777777778 22.9286024305556  0 20.0842013888889  0 17  C 0 13.9157986111111  0.715277777777778 11.0713975694444  2.14583333333333 8.466796875  C 3.57638888888889 5.86219618055556  5.51736111111111 3.79991319444444  7.96875 2.27994791666667  Z M 12.6666666666667 25.30078125  L 24 18.2174479166667  C 24.4444444444444 17.9518229166667  24.6666666666667 17.5460069444444  24.6666666666667 17  C 24.6666666666667 16.4539930555556  24.4444444444444 16.0481770833333  24 15.7825520833333  L 12.6666666666667 8.69921875  C 12.2361111111111 8.41883680555556  11.7916666666667 8.41145833333333  11.3333333333333 8.67708333333333  C 10.8888888888889 8.95746527777778  10.6666666666667 9.37065972222222  11 9.91666666666667  L 11 24.0833333333333  C 10.6666666666667 24.6293402777778  10.8888888888889 25.0425347222222  11.3333333333333 25.3229166666667  C 11.5555555555556 25.4409722222222  11.7777777777778 25.5  12 25.5  C 12.2361111111111 25.5  12.4583333333333 25.43359375  12.6666666666667 25.30078125  Z " fill-rule="nonzero" fill="#000000" stroke="none" transform="matrix(1 0 0 1 2060 1423 )" />
  </g>
</svg>