<?xml version="1.0" encoding="utf-8"?>
<svg version="1.1" xmlns:xlink="http://www.w3.org/1999/xlink" width="26px" height="35px" xmlns="http://www.w3.org/2000/svg">
  <g transform="matrix(1 0 0 1 -623 -231 )">
    <path d="M 26 4.99379652605459  C 26 5.37014061207609  25.8410553410553 5.69582299421009  25.523166023166 5.97084367245658  L 12.1969111969112 17.5  L 25.523166023166 29.0291563275434  C 25.8410553410553 29.3041770057899  26 29.6298593879239  26 30.0062034739454  C 26 30.3825475599669  25.8410553410553 30.7082299421009  25.523166023166 30.9832506203474  L 21.3571428571429 34.5874689826303  C 21.0392535392535 34.8624896608768  20.6628056628057 35  20.2277992277992 35  C 19.7927927927928 35  19.4163449163449 34.8624896608768  19.0984555984556 34.5874689826303  L 0.476833976833977 18.477047146402  C 0.158944658944659 18.2020264681555  0 17.8763440860215  0 17.5  C 0 17.1236559139785  0.158944658944659 16.7979735318445  0.476833976833977 16.522952853598  L 19.0984555984556 0.412531017369726  C 19.4163449163449 0.137510339123241  19.7927927927928 0  20.2277992277992 0  C 20.6628056628057 0  21.0392535392535 0.137510339123241  21.3571428571429 0.412531017369726  L 25.523166023166 4.01674937965261  C 25.8410553410553 4.29177005789909  26 4.61745244003308  26 4.99379652605459  Z " fill-rule="nonzero" fill="#000000" stroke="none" transform="matrix(1 0 0 1 623 231 )" />
  </g>
</svg>