<?xml version="1.0" encoding="utf-8"?>
<svg version="1.1" xmlns:xlink="http://www.w3.org/1999/xlink" width="19px" height="23px" xmlns="http://www.w3.org/2000/svg">
  <g transform="matrix(1 0 0 1 -944 -320 )">
    <path d="M 19 11.5  C 19 11.747311827957  18.8838481338481 11.9613316790736  18.6515444015444 12.1420595533499  L 5.04343629343629 22.7289081885856  C 4.81113256113256 22.9096360628619  4.53603603603604 23  4.21814671814672 23  C 3.9002574002574 23  3.62516087516088 22.9096360628619  3.39285714285714 22.7289081885856  L 0.348455598455598 20.3604218362283  C 0.116151866151866 20.179693961952  0 19.9656741108354  0 19.7183622828784  C 0 19.4710504549214  0.116151866151866 19.2570306038048  0.348455598455598 19.0763027295285  L 10.0868725868726 11.5  L 0.348455598455598 3.92369727047146  C 0.116151866151866 3.7429693961952  0 3.52894954507858  0 3.28163771712159  C 0 3.0343258891646  0.116151866151866 2.82030603804797  0.348455598455598 2.63957816377171  L 3.39285714285714 0.271091811414391  C 3.62516087516088 0.0903639371381296  3.9002574002574 0  4.21814671814672 0  C 4.53603603603604 0  4.81113256113256 0.0903639371381296  5.04343629343629 0.271091811414391  L 18.6515444015444 10.8579404466501  C 18.8838481338481 11.0386683209264  19 11.252688172043  19 11.5  Z " fill-rule="nonzero" fill="#999999" stroke="none" transform="matrix(1 0 0 1 944 320 )" />
  </g>
</svg>