<?xml version="1.0" encoding="utf-8"?>
<svg version="1.1" xmlns:xlink="http://www.w3.org/1999/xlink" width="19px" height="25px" xmlns="http://www.w3.org/2000/svg">
  <g transform="matrix(1 0 0 1 -944 -695 )">
    <path d="M 19 12.5  C 19 12.7688172043011  18.8838481338481 13.0014474772539  18.6515444015444 13.1978908188586  L 5.04343629343629 24.7053349875931  C 4.81113256113256 24.9017783291977  4.53603603603604 25  4.21814671814672 25  C 3.9002574002574 25  3.62516087516088 24.9017783291977  3.39285714285714 24.7053349875931  L 0.348455598455598 22.1308933002481  C 0.116151866151866 21.9344499586435  0 21.7018196856907  0 21.4330024813896  C 0 21.1641852770885  0.116151866151866 20.9315550041357  0.348455598455598 20.735111662531  L 10.0868725868726 12.5  L 0.348455598455598 4.26488833746898  C 0.116151866151866 4.06844499586435  0 3.8358147229115  0 3.56699751861042  C 0 3.29818031430934  0.116151866151866 3.06555004135649  0.348455598455598 2.86910669975186  L 3.39285714285714 0.294665012406947  C 3.62516087516088 0.0982216708023148  3.9002574002574 0  4.21814671814672 0  C 4.53603603603604 0  4.81113256113256 0.0982216708023148  5.04343629343629 0.294665012406947  L 18.6515444015444 11.8021091811414  C 18.8838481338481 11.9985525227461  19 12.2311827956989  19 12.5  Z " fill-rule="nonzero" fill="#999999" stroke="none" transform="matrix(1 0 0 1 944 695 )" />
  </g>
</svg>