<?xml version="1.0" encoding="utf-8"?>
<svg version="1.1" xmlns:xlink="http://www.w3.org/1999/xlink" width="20px" height="25px" xmlns="http://www.w3.org/2000/svg">
  <g transform="matrix(1 0 0 1 -943 -613 )">
    <path d="M 20 12.5  C 20 12.7688172043011  19.8777348777349 13.0014474772539  19.6332046332046 13.1978908188586  L 5.30888030888031 24.7053349875931  C 5.06435006435007 24.9017783291977  4.77477477477478 25  4.44015444015444 25  C 4.10553410553411 25  3.81595881595882 24.9017783291977  3.57142857142857 24.7053349875931  L 0.366795366795367 22.1308933002481  C 0.122265122265122 21.9344499586435  0 21.7018196856907  0 21.4330024813896  C 0 21.1641852770885  0.122265122265122 20.9315550041357  0.366795366795367 20.735111662531  L 10.6177606177606 12.5  L 0.366795366795367 4.26488833746898  C 0.122265122265122 4.06844499586435  0 3.8358147229115  0 3.56699751861042  C 0 3.29818031430934  0.122265122265122 3.06555004135649  0.366795366795367 2.86910669975186  L 3.57142857142857 0.294665012406947  C 3.81595881595882 0.0982216708023148  4.10553410553411 0  4.44015444015444 0  C 4.77477477477478 0  5.06435006435007 0.0982216708023148  5.30888030888031 0.294665012406947  L 19.6332046332046 11.8021091811414  C 19.8777348777349 11.9985525227461  20 12.2311827956989  20 12.5  Z " fill-rule="nonzero" fill="#999999" stroke="none" transform="matrix(1 0 0 1 943 613 )" />
  </g>
</svg>